<svg xmlns="http://www.w3.org/2000/svg" viewBox="0 0 152 152">
  <defs>
    <linearGradient id="igGradient" x1="22.26" x2="129.74" y1="22.26" y2="129.74" gradientUnits="userSpaceOnUse">
      <stop offset="0" stop-color="#fae100"/>
      <stop offset=".15" stop-color="#fcb720"/>
      <stop offset=".3" stop-color="#ff7950"/>
      <stop offset=".5" stop-color="#ff1c74"/>
      <stop offset="1" stop-color="#6c1cd1"/>
    </linearGradient>
  </defs>
  <rect width="152" height="152" fill="url(#igGradient)" rx="76"/>
  <path fill="#ffffff10" d="M133.2 26c-11.08 20.34-26.75 41.32-46.33 60.9S46.31 122.12 26 133.2q-1.91-1.66-3.71-3.46A76 76 0 1 1 129.74 22.26q1.8 1.8 3.46 3.74z"/>
  <path fill="#fff" d="M94 36H58a22 22 0 0 0-22 22v36a22 22 0 0 0 22 22h36a22 22 0 0 0 22-22V58a22 22 0 0 0-22-22zm15 54.84A18.16 18.16 0 0 1 90.84 109H61.16A18.16 18.16 0 0 1 43 90.84V61.16A18.16 18.16 0 0 1 61.16 43h29.68A18.16 18.16 0 0 1 109 61.16z"/>
  <path fill="#fff" d="m90.59 61.56-.19-.19-.16-.16A20.16 20.16 0 0 0 76 55.33 20.52 20.52 0 0 0 55.62 76a20.75 20.75 0 0 0 6 14.61 20.19 20.19 0 0 0 14.42 6 20.73 20.73 0 0 0 14.55-35.05zM76 89.56A13.56 13.56 0 1 1 89.37 76 13.46 13.46 0 0 1 76 89.56zM102.43 54.38a4.88 4.88 0 0 1-4.85 4.92 4.81 4.81 0 0 1-3.42-1.43 4.93 4.93 0 0 1 3.43-8.39 4.82 4.82 0 0 1 3.09 1.12l.1.1a3.05 3.05 0 0 1 .44.44l.11.12a4.92 4.92 0 0 1 1.1 3.12z"/>
</svg>
